<?xml version='1.0' encoding='utf-8'?>
<svg xmlns="http://www.w3.org/2000/svg" viewBox="0 0 640 480">
 <defs>
  <linearGradient id="c" x1=".43534" x2=".63257" y1=".50018" y2=".50018" gradientTransform="matrix(.6415 0 0 -.7781 -31.166 4.888)" gradientUnits="userSpaceOnUse">
   <stop stop-color="#fbb045" offset="0"/>
   <stop stop-color="#c77829" offset="1"/>
  </linearGradient>
  <radialGradient id="d" cx="414.68" cy="-8.8805" r="123.55" gradientTransform="matrix(-5.8291e-6 .89419 -1.9479 1.1251e-8 598.73 580.58)" gradientUnits="userSpaceOnUse">
   <stop stop-color="#ffb142" offset="0"/>
   <stop stop-color="#ffb141" offset=".88679"/>
   <stop stop-color="#c87600" offset="1"/>
  </radialGradient>
 </defs>
 <g stroke="#010101" stroke-width="4">
  <path d="m317.66 264.43c-68.151 24.632 20.064 134.04-53.572 229.5-13.61 17.647 81.973 2.9773 115.77-94.804 32.862-95.09 1.6036-153.11-62.194-134.7z" fill="#fff"/>
  <path d="m317.66 264.43c-68.151 24.632 20.064 134.04-53.572 229.5-13.61 17.647 81.973 2.9773 115.77-94.804 32.862-95.09 1.6036-153.11-62.194-134.7z" fill="#ffa"/>
 </g>
 <path d="m339.99 261.03c-0.58359 0-1.1786 0.029907-1.7707 0.044159 22.965 18.6 32.684 61.646 20.938 121.51-15.615 79.583-75.894 113.92-95.929 115.73 6.5049 9.2917 86.37-11.57 116.65-99.176 28.755-83.203 8.3875-138.04-39.885-138.11z" fill="#010101" fill-opacity=".314"/>
 <path d="m96.053 264.43c68.153 24.632-20.063 134.04 53.573 229.5 13.61 17.647-81.974 2.9773-115.77-94.804-32.86-95.09-1.6022-153.11 62.193-134.7z" fill="#ffa" stroke="#010101" stroke-width="4"/>
 <path d="m22.853 306.86c-4.8886 23.501-1.8401 55.062 11.022 92.281 33.792 97.781 129.37 112.46 115.76 94.816-5.8207-7.5462-10.654-15.198-14.609-22.87-26.845-6.4655-76.563-34.707-99.027-99.71-8.3266-24.102-12.541-45.819-13.147-64.517zm100.97 9.031c-1.2508 12.154-2.6277 25.074-3.2312 38.621 1.4066-13.941 2.9465-26.968 3.2312-38.621z" fill="#010101" fill-opacity=".314"/>
 <g fill-rule="evenodd">
  <path d="m156.88 464.84c-68.114 7.047-146.24 62.445-115.18 74.527 31.052 12.081 121.18 17.12 138.2 3.025 8.75-7.243 24.406-25.382 26.251-42.402 1.847 17.019 17.457 35.16 26.206 42.402 17.028 14.095 107.2 9.056 138.25-3.025 31.051-12.082-47.072-67.48-115.18-74.527-35.074 3.397-47.69 15.243-49.27 28.832-1.581-13.589-14.197-25.435-49.27-28.832z" fill="url(#d)" stroke="#000" stroke-width="5"/>
  <path d="m156.89 464.86c-33.432 3.4592-69.243 18.567-93.405 34.483 36.594 17.01 81.336 27.493 129.84 28.698 6.2148-8.2185 11.782-18.296 12.838-28.031 1.0469 9.6439 6.4838 19.632 12.616 27.809 47.704-2.0302 91.52-13.022 127.18-30.345-24.075-15.222-58.394-29.289-90.528-32.614-35.074 3.398-47.69 15.243-49.27 28.832-1.5806-13.589-14.196-25.434-49.27-28.832z" fill-opacity=".314"/>
 </g>
 <path d="m362.03 365c0.025513 86.151-69.453 156-155.17 156-85.714 0-155.19-69.855-155.16-156-0.026939-86.151 69.452-156 155.16-156 85.714-0.001572 155.19 69.853 155.17 156z" fill="#ffa" stroke="#010101" stroke-linecap="round" stroke-linejoin="round" stroke-width="4"/>
 <path d="m352.65 311.5c0.10764 2.3949 0.17706 4.8338 0.17706 7.2528 0 86.09-69.507 155.95-155.16 155.95-66.951 0-124.08-42.714-145.82-102.47 3.7581 82.741 71.783 148.74 155.03 148.74 85.65 0 155.16-69.862 155.16-155.95 0-18.797-3.312-36.834-9.3848-53.526z" fill="#010101" fill-opacity=".314"/>
 <g stroke="#010101">
  <g stroke-linecap="round" stroke-linejoin="round">
   <g stroke-width="4">
    <path d="m246.26 178.71l-86.012 2.2247s2.1076 19.979-2.7003 41.824c-7.4247 2.501-14.593 5.5706-21.47 9.1212 24.035 20.176 52.047 32.569 69.81 32.569 18.595 0 46.883-12.608 70.873-33.059-7.9428-4.0354-16.268-7.4263-24.923-10.056-6.2728-22.209-5.5777-42.625-5.5777-42.625z" fill="#010101" opacity=".32"/>
    <path d="m134.78 258.7c35.122-25.383 25.454-83.478 25.454-83.478l83.291-4.9247s-2.1503 61.269 33.688 87.089" fill="#ffa"/>
   </g>
   <path d="m245.48 181.64l-82.872 2.1199s0.066711 0.86919 0.17061 2.5016c0.053223 0.76682 0.077896 1.3331 0.12785 2.5016 0.008728 0.18649 0.035263 0.31302 0.042664 0.50871 0.0215 0.55287 0.026703 0.98582 0.042572 1.6112 0.005722 0.18146-0.004333 0.36378 0 0.55113 0.021484 0.95853 0.04184 1.9496 0.042542 3.0529 5.49e-4 0.84781-0.026413 1.7036-0.042542 2.6286-0.005829 0.28244 0.007217 0.51654 0 0.80576-0.011566 0.46962-0.026703 0.95488-0.042572 1.4415-0.03772 1.1596-0.099228 2.2716-0.17059 3.5192-0.010162 0.16251 0.010025 0.30241 0 0.46631 0.79382 5.3088 0.20486 8.317-2.5326 20.267-1.4306 6.4285-3.7195 13.036-6.6801 19.292 19.315 12.87 39.66 26.135 53.353 26.135 14.042 0 33.483-11.754 52.508-24.328-3.8019-6.8016-8.1998-16.453-10.22-23.527-3.343-9.7116-1.8208-13.558-2.7033-21.06-0.2568-2.1946-0.45146-4.2146-0.59715-6.1056-0.14442-1.8743-0.23396-3.5821-0.29855-5.0879-0.06601-1.5345-0.1144-2.8643-0.12798-3.9429-0.026077-2.0655 0-3.3496 0-3.3496h-2.59e-4z" fill="#010101" opacity=".32" stroke-width="3.796"/>
   <path d="m275.21 26.699c-18.441-13.041-41.848-20.691-69.338-20.691-25.014 0-46.352 5.9771-63.66 16.359-19.798 13.754-35.697 33.735-45.45 57.467-4.4934 13.227-6.8265 27.626-6.8265 42.703 0 64.32 79.505 116.53 115.94 116.53 37.847 0 115.94-52.209 115.94-116.53 0-15.537-2.593-30.356-7.512-43.912-8.791-20.827-22.332-38.707-39.087-51.927z" fill="#ffa" stroke-width="4"/>
  </g>
  <path d="m211.36 133.09c-15.8 0-32.977 16.64-32.288 27.144 9.4878 37.207-30.663 54.29 34.351 54.29s17.664-33.548 29.542-55.166c-0.68529-12.257-21.294-27.142-31.604-26.268z" fill="#010101" opacity=".32" stroke-width="6.091"/>
  <path d="m209.68 123.47c-23.566 0-49.187 24.604-48.16 40.138 14.152 55.018-45.736 80.279 51.236 80.279s26.347-49.607 44.064-81.574c-1.0222-18.124-31.761-40.136-47.14-38.842z" fill="url(#c)" stroke-width="4"/>
 </g>
 <path d="m175.72 47.554c-22.31 0-40.428 21.055-40.428 46.998s18.118 46.997 40.428 46.997c13.109 0 24.742-7.2786 32.126-18.541 7.3846 11.271 19.043 18.541 32.159 18.541 22.307 0 40.426-21.056 40.426-46.997 0-25.944-18.119-46.998-40.426-46.998-13.115 0-24.774 7.2728-32.159 18.542-7.3846-11.259-19.02-18.542-32.126-18.542z" fill="#fff" stroke="#010101" stroke-linecap="round" stroke-width="5"/>
 <path d="m205.29 97.733c0 6.4968-5.2399 11.762-11.702 11.762-6.4638 0-11.704-5.2666-11.704-11.762 0-6.4968 5.2399-11.763 11.704-11.763 6.4624 0 11.702 5.2666 11.702 11.763z" fill="#010101" stroke="#010101" stroke-linecap="round" stroke-width="3.169"/>
 <path d="m192.4 93.613c0 1.6856-1.3571 3.051-3.0343 3.051s-3.0357-1.3654-3.0357-3.051c0-1.6859 1.3585-3.0529 3.0357-3.0529s3.0343 1.3684 3.0343 3.0529z" fill="#fff"/>
 <path d="m234.93 97.733c0 6.4968-5.2399 11.762-11.702 11.762-6.4638 0-11.704-5.2666-11.704-11.762 0-6.4968 5.2399-11.763 11.704-11.763 6.4624 0 11.702 5.2666 11.702 11.763z" fill="#010101" stroke="#010101" stroke-linecap="round" stroke-width="3.169"/>
 <path d="m222.04 93.613c0 1.6856-1.3585 3.051-3.0357 3.051-1.6773 0-3.0357-1.3654-3.0357-3.051 0-1.6859 1.3585-3.0529 3.0357-3.0529 1.6758 0.001564 3.0357 1.3684 3.0357 3.0529z" fill="#fff"/>
 </svg>